<?xml version="1.0" encoding="UTF-8" standalone="no"?>
<svg xmlns="http://www.w3.org/2000/svg" version="1.1" xmlns:xlink="http://www.w3.org/1999/xlink" xmlns:svgjs="http://svgjs.dev/svgjs" width="1000" height="1000" viewBox="0 0 1000 1000"><rect width="1000" height="1000" fill="#000000"></rect><g transform="matrix(0.7,0,0,0.7,150,150.0000631376676)"><svg viewBox="0 0 280 280" data-background-color="#ffffff" preserveAspectRatio="xMidYMid meet" height="1000" width="1000" xmlns="http://www.w3.org/2000/svg" xmlns:xlink="http://www.w3.org/1999/xlink"><g id="tight-bounds" transform="matrix(1,0,0,1,0,-0.00002525506704387226)"><svg viewBox="0 0 280 280" height="280" width="280"><g><svg viewBox="0 0 280 280" height="280" width="280"><g transform="matrix(1,0,0,1,60.80404050710668,82.39336610705962)"><svg viewBox="0 0 158.39191898578665 115.21326778588077" height="115.21326778588077" width="158.39191898578665"><g><svg viewBox="0 0 158.39191898578665 115.21326778588077" height="115.21326778588077" width="158.39191898578665"><g><svg viewBox="0 0 158.39191898578665 115.21326778588077" height="115.21326778588077" width="158.39191898578665"><g transform="matrix(1,0,0,1,0,68.55060101477764)"><svg viewBox="0 0 158.39191898578665 46.66266677110313" height="46.66266677110313" width="158.39191898578665"><g id="textblocktransform"><svg viewBox="0 0 158.39191898578665 46.66266677110313" height="46.66266677110313" width="158.39191898578665" id="textblock"><g><svg viewBox="0 0 158.39191898578665 27.841859715421112" height="27.841859715421112" width="158.39191898578665"><g transform="matrix(1,0,0,1,0,0)"><svg width="158.39191898578665" viewBox="0.6000000238418579 -36.29999923706055 263.3800048828125 46.29999923706055" height="27.841859715421112" data-palette-color="#7e8082"><path d="M28.65 0L25.15 0 21.65-9.55 7.5-9.55 4.35 0 0.6 0 12.7-34.1 16.2-34.1 28.65 0ZM14.4-29.2L8.65-12.65 20.5-12.65 14.4-29.2ZM36.05 0L32.65 0 32.65-36.3 36.05-36.3 36.05 0ZM52.65-24.2Q55.8-24.2 58.34-22.65 60.9-21.1 62.35-18.43 63.8-15.75 63.8-12.45L63.8-12.45Q63.8-11.5 63.75-11L63.75-11 44.5-11Q44.7-7.4 46.85-4.85 49-2.3 52.7-2.3L52.7-2.3Q55.7-2.3 57.67-3.43 59.65-4.55 60.85-6.55L60.85-6.55 63.55-4.75Q61.9-2.15 59.2-0.68 56.5 0.8 52.8 0.8L52.8 0.8Q49.4 0.8 46.75-0.8 44.1-2.4 42.6-5.25 41.1-8.1 41.1-11.7L41.1-11.7Q41.1-15.3 42.57-18.15 44.05-21 46.67-22.6 49.3-24.2 52.65-24.2L52.65-24.2ZM44.7-13.8L60.4-13.8Q59.9-17.45 57.95-19.28 56-21.1 52.65-21.1L52.65-21.1Q49.4-21.1 47.32-19.03 45.25-16.95 44.7-13.8L44.7-13.8ZM78.04-12.05L85.64 0 81.74 0 75.64-9.75 69.54 0 65.74 0 73.24-12 66.19-23.4 70.04-23.4 75.69-14.2 81.64-23.4 85.39-23.4 78.04-12.05ZM91.24 0L91.24-34.1 99.69-34.1Q104.94-34.1 108.74-32.08 112.54-30.05 114.54-26.2 116.54-22.35 116.54-17L116.54-17Q116.54-9 112.09-4.5 107.64 0 99.69 0L99.69 0 91.24 0ZM94.99-3.4L99.59-3.4Q105.69-3.4 109.14-6.75 112.59-10.1 112.59-17L112.59-17Q112.59-23.95 109.14-27.3 105.69-30.65 99.59-30.65L99.59-30.65 94.99-30.65 94.99-3.4ZM117.04 10L117.04 6.9 118.44 6.9Q120.19 6.9 121.31 5.7 122.44 4.5 122.44 2.6L122.44 2.6 122.44-23.4 125.84-23.4 125.84 2.6Q125.84 5.85 123.76 7.93 121.69 10 118.44 10L118.44 10 117.04 10ZM124.14-27.95Q122.99-27.95 122.21-28.75 121.44-29.55 121.44-30.7L121.44-30.7Q121.44-31.8 122.21-32.58 122.99-33.35 124.14-33.35L124.14-33.35Q125.24-33.35 126.04-32.58 126.84-31.8 126.84-30.65L126.84-30.65Q126.84-29.55 126.04-28.75 125.24-27.95 124.14-27.95L124.14-27.95ZM150.44-23.4L153.84-23.4 153.84 0 150.44 0 150.44-3.45Q148.99-1.45 146.89-0.33 144.79 0.8 142.29 0.8L142.29 0.8Q138.94 0.8 136.29-0.8 133.64-2.4 132.14-5.25 130.64-8.1 130.64-11.75L130.64-11.75Q130.64-15.35 132.11-18.18 133.59-21 136.21-22.6 138.84-24.2 142.19-24.2L142.19-24.2Q144.74-24.2 146.86-23.08 148.99-21.95 150.44-19.9L150.44-19.9 150.44-23.4ZM142.19-2.3Q144.59-2.3 146.46-3.5 148.34-4.7 149.39-6.85 150.44-9 150.44-11.7L150.44-11.7Q150.44-14.4 149.39-16.55 148.34-18.7 146.46-19.9 144.59-21.1 142.19-21.1L142.19-21.1Q139.84-21.1 137.99-19.9 136.14-18.7 135.09-16.57 134.04-14.45 134.04-11.75L134.04-11.75Q134.04-9 135.09-6.85 136.14-4.7 137.99-3.5 139.84-2.3 142.19-2.3L142.19-2.3ZM171.28-24.2Q173.73-24.2 175.81-23.2 177.88-22.2 179.11-20.25 180.33-18.3 180.33-15.65L180.33-15.65 180.33 0 176.93 0 176.93-14.15Q176.93-21.1 170.73-21.1L170.73-21.1Q167.13-21.1 165.33-18.55 163.53-16 163.53-11.7L163.53-11.7 163.53 0 160.13 0 160.13-23.4 163.53-23.4 163.53-19.5Q164.73-21.75 166.71-22.98 168.68-24.2 171.28-24.2L171.28-24.2ZM205.33-23.4L208.73-23.4 208.73-0.9Q208.73 2.25 207.43 4.73 206.13 7.2 203.78 8.6 201.43 10 198.43 10L198.43 10 188.73 10 188.73 6.9 198.43 6.9Q201.48 6.9 203.41 4.7 205.33 2.5 205.33-0.9L205.33-0.9 205.33-3.45Q203.88-1.45 201.78-0.33 199.68 0.8 197.18 0.8L197.18 0.8Q193.83 0.8 191.18-0.8 188.53-2.4 187.03-5.25 185.53-8.1 185.53-11.75L185.53-11.75Q185.53-15.35 187.01-18.18 188.48-21 191.11-22.6 193.73-24.2 197.08-24.2L197.08-24.2Q199.63-24.2 201.76-23.08 203.88-21.95 205.33-19.9L205.33-19.9 205.33-23.4ZM197.08-2.3Q199.48-2.3 201.36-3.5 203.23-4.7 204.28-6.85 205.33-9 205.33-11.7L205.33-11.7Q205.33-14.4 204.28-16.55 203.23-18.7 201.36-19.9 199.48-21.1 197.08-21.1L197.08-21.1Q194.73-21.1 192.88-19.9 191.03-18.7 189.98-16.57 188.93-14.45 188.93-11.75L188.93-11.75Q188.93-9 189.98-6.85 191.03-4.7 192.88-3.5 194.73-2.3 197.08-2.3L197.08-2.3ZM225.23 0.8Q221.88 0.8 219.23-0.8 216.58-2.4 215.08-5.28 213.58-8.15 213.58-11.75L213.58-11.75Q213.58-15.35 215.05-18.18 216.53-21 219.15-22.6 221.78-24.2 225.13-24.2L225.13-24.2Q228.48-24.2 231.13-22.6 233.78-21 235.28-18.15 236.78-15.3 236.78-11.7L236.78-11.7Q236.78-8.1 235.3-5.25 233.83-2.4 231.2-0.8 228.58 0.8 225.23 0.8L225.23 0.8ZM225.13-2.3Q227.53-2.3 229.4-3.5 231.28-4.7 232.33-6.85 233.38-9 233.38-11.7L233.38-11.7Q233.38-14.4 232.33-16.55 231.28-18.7 229.4-19.9 227.53-21.1 225.13-21.1L225.13-21.1Q222.78-21.1 220.93-19.9 219.08-18.7 218.03-16.57 216.98-14.45 216.98-11.75L216.98-11.75Q216.98-9 218.03-6.85 219.08-4.7 220.93-3.5 222.78-2.3 225.13-2.3L225.13-2.3ZM253.58-17.2L263.98 0 259.78 0 251.18-14.2 243.13 0 238.93 0 248.78-16.85 238.68-34.1 242.73-34.1 251.23-19.55 259.93-34.1 263.83-34.1 253.58-17.2Z" opacity="1" transform="matrix(1,0,0,1,0,0)" fill="#ffffff" class="undefined-text-0" data-fill-palette-color="primary" id="text-0"></path></svg></g></svg></g><g transform="matrix(1,0,0,1,0,31.904655252534223)"><svg viewBox="0 0 158.39191898578665 14.75801151856891" height="14.75801151856891" width="158.39191898578665"><g transform="matrix(1,0,0,1,0,0)"><svg width="158.39191898578665" viewBox="4.349999904632568 -36.099998474121094 393.30999755859375 36.64999771118164" height="14.75801151856891" data-palette-color="#646466"><path d="M7.45 0L4.35 0 4.35-34.75 24.85-34.75 24.85-31.95 7.45-31.95 7.45-17.6 22.25-17.6 22.25-14.85 7.45-14.85 7.45 0ZM44.85-4.3L44.85-25 47.8-25 47.8 0 44.85 0 44.85-1.85Q41 0.5 37.15 0.5L37.15 0.5Q32.05 0.5 30.42-2.1 28.8-4.7 28.8-11.95L28.8-11.95 28.8-25 31.75-25 31.75-12Q31.75-6.2 32.82-4.2 33.9-2.2 37.5-2.2L37.5-2.2Q39.25-2.2 41.1-2.73 42.95-3.25 43.9-3.8L43.9-3.8 44.85-4.3ZM58.55 0L55.59 0 55.59-36.1 58.55-36.1 58.55 0ZM69.59 0L66.64 0 66.64-36.1 69.59-36.1 69.59 0ZM87.39-32.55L87.39-32.55Q79.34-32.55 79.34-26.4L79.34-26.4Q79.34-22.8 81.17-21.55 82.99-20.3 88.31-19.25 93.64-18.2 95.92-16.35 98.19-14.5 98.19-10.15L98.19-10.15Q98.19-4.55 95.42-2.08 92.64 0.4 87.29 0.4L87.29 0.4Q83.39 0.4 78.24-0.3L78.24-0.3 76.44-0.55 76.79-3.2Q83.64-2.35 87.39-2.35 91.14-2.35 93.09-4.17 95.04-6 95.04-9.53 95.04-13.05 93.31-14.33 91.59-15.6 87.81-16.3 84.04-17 82.29-17.57 80.54-18.15 79.02-19.23 77.49-20.3 76.84-21.98 76.19-23.65 76.19-26.2L76.19-26.2Q76.19-35.3 87.19-35.3L87.19-35.3Q90.49-35.3 95.79-34.6L95.79-34.6 97.44-34.35 97.19-31.7Q90.29-32.55 87.39-32.55ZM116.59-25L116.59-22.35 108.24-22.35 108.24-10Q108.24-5.15 108.94-3.65 109.64-2.15 112.24-2.15L112.24-2.15 116.84-2.5 117.04 0.05Q113.74 0.55 111.99 0.55L111.99 0.55Q108.19 0.55 106.71-1.33 105.24-3.2 105.24-8.5L105.24-8.5 105.24-22.35 101.54-22.35 101.54-25 105.24-25 105.24-32.85 108.24-32.85 108.24-25 116.59-25ZM138.49-17.55L138.49-17.55 138.49-4.15Q138.69-2.3 141.74-1.95L141.74-1.95 141.59 0.45Q137.74 0.45 135.94-1.55L135.94-1.55Q131.23 0.5 126.53 0.5L126.53 0.5Q123.19 0.5 121.44-1.43 119.69-3.35 119.69-6.93 119.69-10.5 121.46-12.23 123.23-13.95 127.03-14.35L127.03-14.35 135.53-15.2 135.53-17.55Q135.53-20.35 134.31-21.58 133.09-22.8 131.03-22.8L131.03-22.8Q127.83-22.8 122.73-22.2L122.73-22.2 121.19-22.05 121.03-24.45Q126.53-25.5 130.66-25.5 134.78-25.5 136.63-23.55 138.49-21.6 138.49-17.55ZM122.78-7.1L122.78-7.1Q122.78-2.05 126.94-2.05L126.94-2.05Q128.73-2.05 130.88-2.48 133.03-2.9 134.28-3.35L134.28-3.35 135.53-3.8 135.53-12.85 127.38-12Q124.94-11.8 123.86-10.6 122.78-9.4 122.78-7.1ZM155.53-25.5L155.53-25.5Q157.78-25.5 160.88-25L160.88-25 162.03-24.85 161.88-22.3Q157.93-22.8 156.03-22.8L156.03-22.8Q151.58-22.8 149.93-20.63 148.28-18.45 148.28-12.63 148.28-6.8 149.78-4.5 151.28-2.2 156.03-2.2L156.03-2.2 161.98-2.65 162.08-0.1Q157.63 0.5 155.48 0.5L155.48 0.5Q149.53 0.5 147.36-2.45 145.18-5.4 145.18-12.6 145.18-19.8 147.56-22.65 149.93-25.5 155.53-25.5ZM170.83-11.95L170.83 0 167.88 0 167.88-36.1 170.83-36.1 170.83-14.6 175.08-14.7 182.78-25 186.23-25 177.68-13.55 186.63 0 183.13 0 175.13-12.05 170.83-11.95ZM216.68-13.7L206.08-13.7 206.08 0 202.98 0 202.98-34.75 215.73-34.75Q221.18-34.75 223.85-32.27 226.53-29.8 226.53-24.45L226.53-24.45Q226.53-16.1 219.83-14.3L219.83-14.3 226.98 0 223.53 0 216.68-13.7ZM223.33-24.4L223.33-24.4Q223.33-28.3 221.48-30.15 219.63-32 215.73-32L215.73-32 206.08-32 206.08-16.45 215.73-16.45Q223.33-16.45 223.33-24.4ZM249.22-2.5L249.22-2.5 250.72-2.65 250.82-0.2Q245.17 0.5 241.27 0.5L241.27 0.5Q235.87 0.45 233.72-2.7 231.57-5.85 231.57-12.4L231.57-12.4Q231.57-25.5 241.87-25.5L241.87-25.5Q246.82-25.5 249.27-22.68 251.72-19.85 251.72-13.65L251.72-13.65 251.62-11.25 234.62-11.25Q234.62-6.65 236.2-4.42 237.77-2.2 241.6-2.2 245.42-2.2 249.22-2.5ZM234.62-13.75L234.62-13.75 248.72-13.75Q248.72-18.7 247.1-20.8 245.47-22.9 241.9-22.9 238.32-22.9 236.47-20.73 234.62-18.55 234.62-13.75ZM275.07-17.55L275.07-17.55 275.07-4.15Q275.27-2.3 278.32-1.95L278.32-1.95 278.17 0.45Q274.32 0.45 272.52-1.55L272.52-1.55Q267.82 0.5 263.12 0.5L263.12 0.5Q259.77 0.5 258.02-1.43 256.27-3.35 256.27-6.93 256.27-10.5 258.05-12.23 259.82-13.95 263.62-14.35L263.62-14.35 272.12-15.2 272.12-17.55Q272.12-20.35 270.9-21.58 269.67-22.8 267.62-22.8L267.62-22.8Q264.42-22.8 259.32-22.2L259.32-22.2 257.77-22.05 257.62-24.45Q263.12-25.5 267.25-25.5 271.37-25.5 273.22-23.55 275.07-21.6 275.07-17.55ZM259.37-7.1L259.37-7.1Q259.37-2.05 263.52-2.05L263.52-2.05Q265.32-2.05 267.47-2.48 269.62-2.9 270.87-3.35L270.87-3.35 272.12-3.8 272.12-12.85 263.97-12Q261.52-11.8 260.45-10.6 259.37-9.4 259.37-7.1ZM292.12-25.5L292.12-25.5Q294.37-25.5 297.47-25L297.47-25 298.62-24.85 298.47-22.3Q294.52-22.8 292.62-22.8L292.62-22.8Q288.17-22.8 286.52-20.63 284.87-18.45 284.87-12.63 284.87-6.8 286.37-4.5 287.87-2.2 292.62-2.2L292.62-2.2 298.57-2.65 298.67-0.1Q294.22 0.5 292.07 0.5L292.07 0.5Q286.12 0.5 283.94-2.45 281.77-5.4 281.77-12.6 281.77-19.8 284.14-22.65 286.52-25.5 292.12-25.5ZM317.12-25L317.12-22.35 308.77-22.35 308.77-10Q308.77-5.15 309.47-3.65 310.17-2.15 312.77-2.15L312.77-2.15 317.37-2.5 317.57 0.05Q314.27 0.55 312.52 0.55L312.52 0.55Q308.72 0.55 307.24-1.33 305.77-3.2 305.77-8.5L305.77-8.5 305.77-22.35 302.07-22.35 302.07-25 305.77-25 305.77-32.85 308.77-32.85 308.77-25 317.12-25ZM335.06 0L335.06 0 322.41 0 322.41-34.75 335.06-34.75Q347.41-34.75 347.41-17.85L347.41-17.85Q347.41 0 335.06 0ZM344.21-17.85L344.21-17.85Q344.21-31.95 335.06-31.95L335.06-31.95 325.51-31.95 325.51-2.75 335.06-2.75Q344.21-2.75 344.21-17.85ZM370.66-2.5L370.66-2.5 372.16-2.65 372.26-0.2Q366.61 0.5 362.71 0.5L362.71 0.5Q357.31 0.45 355.16-2.7 353.01-5.85 353.01-12.4L353.01-12.4Q353.01-25.5 363.31-25.5L363.31-25.5Q368.26-25.5 370.71-22.68 373.16-19.85 373.16-13.65L373.16-13.65 373.06-11.25 356.06-11.25Q356.06-6.65 357.64-4.42 359.21-2.2 363.04-2.2 366.86-2.2 370.66-2.5ZM356.06-13.75L356.06-13.75 370.16-13.75Q370.16-18.7 368.54-20.8 366.91-22.9 363.34-22.9 359.76-22.9 357.91-20.73 356.06-18.55 356.06-13.75ZM383.81 0L376.51-25 379.81-25 386.06-2.6 388.06-2.6 394.56-25 397.66-25 390.36 0 383.81 0Z" opacity="1" transform="matrix(1,0,0,1,0,0)" fill="#ffffff" class="undefined-text-1" data-fill-palette-color="secondary" id="text-1"></path></svg></g></svg></g></svg></g></svg></g><g transform="matrix(1,0,0,1,46.951698685276234,0)"><svg viewBox="0 0 64.48852161523418 64.48780547766454" height="64.48780547766454" width="64.48852161523418"><g><svg xmlns="http://www.w3.org/2000/svg" xmlns:xlink="http://www.w3.org/1999/xlink" version="1.1" x="0" y="0" viewBox="4.9670000076293945 5 90.0009994506836 90" enable-background="new 0 0 100 100" xml:space="preserve" height="64.48780547766454" width="64.48852161523418" class="icon-icon-0" data-fill-palette-color="accent" id="icon-0"><g fill="#d90000" data-fill-palette-color="accent"><polygon points="81.588,69.219 76.042,77.733 49.901,5 30.566,58.797 24.486,43.546 4.967,95 17.555,95 45,95 64.794,95 82.249,95    94.968,95  " fill="#ffffff" data-fill-palette-color="accent"></polygon></g></svg></g></svg></g><g></g></svg></g></svg></g></svg></g><path d="M20.538 197.447l-1.027-2.777 6.552-5.579-4.151-11.226-8.504 0.297-1.1-2.977 30.603-0.4 1.027 2.777zM39.527 177.574l-14.82 0.29 3.476 9.402zM29.215 212.881l-1.501-2.451 26.176-16.041 1.501 2.45zM60.464 218.396c1.234 1.284 2.033 2.748 2.396 4.393 0.369 1.641 0.291 3.277-0.234 4.909-0.521 1.637-1.453 3.101-2.797 4.392v0c-0.386 0.371-0.688 0.643-0.905 0.817v0l-11.284-11.74c-1.389 1.487-2.182 3.166-2.379 5.037-0.197 1.871 0.429 3.56 1.877 5.067v0c1.171 1.218 2.371 2.011 3.6 2.377 1.229 0.357 2.485 0.389 3.769 0.095v0l0.48 2.706c-1.699 0.345-3.376 0.257-5.031-0.264-1.655-0.521-3.206-1.535-4.655-3.042v0c-1.328-1.381-2.182-2.922-2.563-4.622-0.386-1.705-0.293-3.418 0.28-5.14 0.572-1.722 1.591-3.287 3.056-4.695v0c1.465-1.408 3.065-2.368 4.799-2.882 1.73-0.518 3.435-0.555 5.114-0.111 1.675 0.439 3.167 1.34 4.477 2.703zM49.456 219.649l9.205 9.578c1.287-1.63 1.922-3.199 1.907-4.704-0.02-1.51-0.685-2.947-1.995-4.31v0c-1.269-1.321-2.732-1.995-4.387-2.023-1.655-0.037-3.232 0.449-4.73 1.459zM77.236 244.621l-0.015 12.05-2.788-1.766 0.046-9.728-8.768 4.205-2.713-1.719 10.792-5.179 0.118-11.343 2.755 1.744-0.13 9.138 8.418-3.889 2.681 1.698zM92.661 263.32l8.723-27.492 6.806 2.159c2.822 0.895 5.084 2.212 6.787 3.95 1.696 1.736 2.753 3.811 3.171 6.224 0.414 2.405 0.165 5.047-0.748 7.924v0c-1.364 4.298-3.626 7.278-6.786 8.942-3.158 1.657-6.874 1.808-11.147 0.452v0zM96.545 261.537l3.717 1.18c3.277 1.04 6.127 0.953 8.549-0.262 2.428-1.212 4.231-3.672 5.407-7.379v0c1.186-3.738 1.137-6.803-0.148-9.193-1.281-2.383-3.56-4.094-6.837-5.134v0l-3.717-1.179zM124.869 279.913l0.158-2.617 1.188 0.072c0.985 0.059 1.814-0.23 2.485-0.869 0.672-0.638 1.04-1.492 1.104-2.56v0l1.321-21.953 2.878 0.173-1.321 21.953c-0.11 1.829-0.786 3.294-2.029 4.395-1.236 1.095-2.768 1.588-4.596 1.478v0zM132.795 248.238c-0.65-0.039-1.178-0.297-1.582-0.773-0.411-0.477-0.597-1.041-0.557-1.691v0c0.037-0.618 0.288-1.133 0.752-1.545 0.457-0.405 1.011-0.589 1.661-0.549v0c0.618 0.037 1.14 0.285 1.564 0.743 0.424 0.465 0.617 1.023 0.578 1.673v0c-0.037 0.618-0.295 1.139-0.772 1.563-0.478 0.424-1.026 0.617-1.644 0.579zM162.316 249.887l2.849-0.377 2.597 19.626-2.849 0.377-0.383-2.897c-0.664 1.227-1.542 2.234-2.635 3.023-1.087 0.782-2.331 1.265-3.732 1.45v0c-1.874 0.248-3.608 0.022-5.204-0.678-1.602-0.699-2.927-1.789-3.976-3.27-1.048-1.481-1.708-3.242-1.977-5.282v0c-0.267-2.014-0.092-3.866 0.524-5.554 0.609-1.688 1.59-3.077 2.942-4.167 1.346-1.089 2.956-1.758 4.83-2.005v0c1.426-0.189 2.776-0.045 4.048 0.43 1.272 0.469 2.39 1.222 3.354 2.26v0zM157.733 268.501c1.343-0.178 2.494-0.672 3.454-1.482 0.96-0.81 1.654-1.855 2.083-3.135 0.429-1.28 0.544-2.675 0.345-4.184v0c-0.2-1.509-0.673-2.826-1.421-3.95-0.747-1.124-1.69-1.953-2.828-2.486-1.138-0.533-2.378-0.71-3.72-0.532v0c-1.311 0.173-2.44 0.664-3.387 1.473-0.947 0.809-1.633 1.846-2.058 3.112-0.431 1.267-0.546 2.655-0.346 4.165v0c0.203 1.535 0.678 2.864 1.425 3.989 0.741 1.125 1.674 1.955 2.799 2.489 1.125 0.534 2.343 0.715 3.654 0.541zM185.286 241.483c1.274-0.531 2.563-0.759 3.865-0.686 1.294 0.069 2.471 0.481 3.532 1.233 1.059 0.747 1.876 1.811 2.451 3.193v0l5.087 12.219-2.653 1.105-4.6-11.049c-1.507-3.621-3.875-4.759-7.103-3.416v0c-1.876 0.781-3.005 2.03-3.386 3.748-0.382 1.717-0.107 3.695 0.825 5.934v0l3.804 9.138-2.662 1.108-7.608-18.276 2.662-1.108 1.268 3.046c0.133-1.425 0.583-2.671 1.347-3.737 0.762-1.072 1.82-1.889 3.171-2.452zM215.192 222.654l2.253-1.783 11.809 14.925c1.105 1.396 1.801 2.869 2.089 4.417 0.288 1.549 0.159 3.045-0.385 4.488-0.549 1.438-1.488 2.683-2.819 3.735v0l-6.434 5.091-1.627-2.056 6.434-5.091c1.351-1.069 2.067-2.425 2.148-4.069 0.086-1.648-0.467-3.225-1.659-4.732v0l-1.339-1.692c0.058 1.394-0.18 2.709-0.715 3.946-0.533 1.228-1.354 2.281-2.462 3.157v0c-1.482 1.173-3.088 1.867-4.816 2.083-1.734 0.22-3.43-0.037-5.09-0.772-1.659-0.735-3.127-1.91-4.404-3.523v0c-1.261-1.593-2.059-3.273-2.395-5.039-0.341-1.762-0.21-3.457 0.393-5.086 0.598-1.625 1.638-3.023 3.12-4.196v0c1.128-0.893 2.361-1.461 3.698-1.704 1.333-0.249 2.679-0.174 4.038 0.223v0zM220.79 240.988c1.062-0.841 1.798-1.855 2.207-3.042 0.409-1.188 0.47-2.441 0.184-3.761-0.287-1.319-0.903-2.576-1.848-3.769v0c-0.945-1.194-2.026-2.082-3.243-2.665-1.218-0.583-2.452-0.812-3.702-0.686-1.25 0.125-2.406 0.608-3.468 1.448v0c-1.037 0.82-1.755 1.821-2.154 3-0.399 1.18-0.457 2.422-0.173 3.727 0.279 1.309 0.891 2.561 1.835 3.755v0c0.961 1.214 2.05 2.112 3.268 2.695 1.213 0.587 2.439 0.822 3.679 0.704 1.24-0.117 2.378-0.586 3.415-1.406zM247.089 216.761c-1.111 1.529-2.469 2.631-4.075 3.306-1.61 0.68-3.318 0.886-5.125 0.619-1.807-0.268-3.532-0.999-5.176-2.192v0c-1.644-1.194-2.866-2.596-3.666-4.206-0.804-1.604-1.135-3.272-0.995-5.003 0.137-1.726 0.761-3.353 1.872-4.882v0c1.111-1.529 2.471-2.634 4.081-3.314 1.606-0.675 3.309-0.885 5.109-0.631 1.796 0.26 3.516 0.987 5.161 2.182v0c1.644 1.194 2.871 2.6 3.682 4.216 0.811 1.617 1.145 3.291 1.004 5.022-0.137 1.726-0.761 3.353-1.872 4.883zM244.916 215.291c0.796-1.096 1.231-2.271 1.305-3.525 0.074-1.254-0.206-2.477-0.839-3.67-0.632-1.193-1.565-2.236-2.796-3.131v0c-1.232-0.895-2.513-1.458-3.842-1.691-1.33-0.232-2.58-0.12-3.75 0.338-1.17 0.458-2.152 1.235-2.948 2.331v0c-0.777 1.07-1.199 2.227-1.265 3.471-0.066 1.244 0.214 2.455 0.84 3.635 0.622 1.185 1.549 2.225 2.781 3.119v0c1.253 0.91 2.544 1.481 3.873 1.714 1.326 0.238 2.57 0.133 3.733-0.315 1.162-0.448 2.132-1.206 2.908-2.276zM249.459 179.299l16.716-3.14-1.249 3.334-13.793 2.593 8.855 10.591-1.246 3.325-10.424-12.801-16.66 2.883 1.201-3.208 14.047-2.415-8.942-11.212 1.154-3.081z" fill="#ffffff" data-fill-palette-color="accent"></path><path d="M37.057 89.66L36.11 92.27 28.032 92.293 24.196 102.861 30.471 107.805 29.455 110.606 7.27 92.322 8.217 89.712ZM11.385 92.385L22.187 101.164 25.399 92.315ZM44.466 76.704L43.06 79.009 18.44 63.983 19.846 61.679ZM44.813 46.499C45.971 45.296 47.314 44.493 48.839 44.09 50.364 43.687 51.904 43.702 53.459 44.133 55.018 44.56 56.427 45.38 57.686 46.592V46.592C58.048 46.941 58.313 47.219 58.482 47.426V47.426L47.877 58.437C49.319 59.683 50.924 60.364 52.692 60.481 54.45 60.599 56.01 59.951 57.37 58.539V58.539C58.471 57.396 59.172 56.24 59.474 55.071 59.767 53.902 59.751 52.724 59.428 51.534V51.534L61.949 50.981C62.335 52.561 62.314 54.14 61.888 55.717 61.457 57.29 60.561 58.782 59.201 60.195V60.195C57.952 61.491 56.536 62.348 54.952 62.766 53.368 63.192 51.757 63.168 50.119 62.692 48.482 62.217 46.975 61.317 45.6 59.992V59.992C44.229 58.672 43.271 57.207 42.725 55.598 42.18 53.989 42.081 52.39 42.43 50.8 42.788 49.21 43.582 47.777 44.813 46.499ZM46.381 56.782L55.033 47.799C53.456 46.647 51.961 46.107 50.548 46.179 49.135 46.251 47.813 46.926 46.583 48.204V48.204C45.388 49.444 44.808 50.842 44.841 52.397 44.866 53.952 45.379 55.414 46.381 56.782ZM76.128 33.997L86.338 38.875 83.718 40.525 75.485 36.552 75.515 45.693 72.961 47.302 72.924 36.061 63.356 31.385 65.943 29.755 73.636 33.543 73.745 24.84 76.266 23.252ZM98.285 33.843L90.162 7.998 96.568 5.984C99.22 5.151 101.666 4.943 103.907 5.361 106.15 5.785 108.085 6.81 109.711 8.436 111.332 10.063 112.566 12.227 113.415 14.929V14.929C114.686 18.972 114.552 22.482 113.014 25.461 111.483 28.444 108.709 30.566 104.69 31.829V31.829ZM100.318 30.374L103.807 29.277C106.89 28.308 109.036 26.704 110.246 24.465 111.462 22.223 111.521 19.358 110.425 15.869V15.869C109.32 12.355 107.629 10.027 105.349 8.884 103.076 7.739 100.398 7.651 97.315 8.62V8.62L93.826 9.716ZM126.894 34.703L126.755 32.249 127.866 32.186C128.793 32.134 129.535 31.772 130.092 31.101 130.655 30.436 130.908 29.598 130.851 28.587V28.587L129.686 7.972 132.381 7.82 133.546 28.435C133.643 30.154 133.172 31.596 132.133 32.759 131.1 33.916 129.724 34.543 128.005 34.64V34.64ZM130.825 4.283C130.219 4.318 129.698 4.134 129.262 3.732 128.833 3.336 128.601 2.833 128.566 2.221V2.221C128.533 1.641 128.708 1.134 129.091 0.699 129.48 0.27 129.977 0.038 130.583 0.004V0.004C131.169-0.029 131.683 0.145 132.124 0.527 132.572 0.916 132.814 1.412 132.848 2.018V2.018C132.881 2.604 132.697 3.118 132.295 3.561 131.901 4.009 131.411 4.25 130.825 4.283ZM164.489 10.338L167.172 10.715 164.587 29.121 161.904 28.744 162.285 26.033C161.377 26.973 160.333 27.661 159.152 28.094 157.963 28.533 156.714 28.66 155.405 28.476V28.476C153.648 28.23 152.136 27.587 150.868 26.549 149.594 25.517 148.668 24.198 148.092 22.593 147.517 20.988 147.363 19.227 147.633 17.311V17.311C147.897 15.427 148.52 13.798 149.501 12.425 150.482 11.051 151.719 10.039 153.21 9.389 154.708 8.746 156.335 8.548 158.091 8.795V8.795C159.426 8.982 160.611 9.448 161.647 10.193 162.675 10.943 163.493 11.908 164.103 13.088V13.088ZM155.671 26.022C156.93 26.199 158.095 26.043 159.166 25.556 160.239 25.061 161.129 24.291 161.836 23.244 162.544 22.19 162.998 20.954 163.197 19.536V19.536C163.395 18.125 163.299 16.815 162.909 15.607 162.517 14.406 161.874 13.42 160.979 12.649 160.084 11.879 159.008 11.405 157.749 11.228V11.228C156.517 11.055 155.37 11.217 154.311 11.713 153.251 12.209 152.368 12.974 151.663 14.008 150.957 15.042 150.505 16.269 150.306 17.687V17.687C150.103 19.13 150.197 20.456 150.587 21.664 150.979 22.865 151.616 23.85 152.498 24.619 153.381 25.381 154.439 25.849 155.671 26.022ZM193.077 19.062C194.27 19.57 195.27 20.283 196.078 21.202 196.88 22.118 197.378 23.178 197.573 24.383 197.763 25.585 197.582 26.833 197.031 28.127V28.127L192.161 39.567 189.677 38.509 194.081 28.165C195.524 24.776 194.735 22.438 191.714 21.152V21.152C189.957 20.405 188.377 20.468 186.974 21.343 185.568 22.21 184.418 23.69 183.527 25.785V25.785L179.885 34.341 177.401 33.283 184.681 16.182 187.165 17.239 185.952 20.088C187.001 19.237 188.137 18.719 189.359 18.531 190.574 18.347 191.813 18.524 193.077 19.062ZM226.565 41.734L228.677 43.43 217.487 57.364C216.441 58.667 215.239 59.612 213.881 60.201 212.523 60.79 211.127 60.984 209.691 60.783 208.256 60.582 206.92 59.984 205.683 58.991V58.991L199.67 54.162 201.209 52.246 207.222 57.074C208.479 58.084 209.871 58.453 211.396 58.181 212.922 57.909 214.248 57.071 215.375 55.668V55.668L216.641 54.091C215.38 54.435 214.132 54.491 212.895 54.259 211.649 54.028 210.511 53.499 209.48 52.671V52.671C208.097 51.56 207.126 50.235 206.568 48.694 206.001 47.155 205.88 45.549 206.207 43.875 206.533 42.201 207.302 40.61 208.514 39.101V39.101C209.706 37.617 211.074 36.537 212.62 35.858 214.165 35.18 215.745 34.944 217.36 35.148 218.975 35.362 220.474 36.024 221.857 37.134V37.134C222.909 37.979 223.688 38.985 224.197 40.155 224.697 41.325 224.906 42.573 224.826 43.899V43.899ZM210.965 50.699C211.955 51.494 213.036 51.957 214.206 52.086 215.381 52.21 216.539 52.003 217.683 51.465 218.83 50.922 219.852 50.093 220.749 48.976V48.976C221.642 47.865 222.229 46.69 222.511 45.453 222.79 44.22 222.742 43.044 222.367 41.924 221.992 40.804 221.309 39.846 220.319 39.051V39.051C219.348 38.271 218.281 37.823 217.116 37.707 215.952 37.591 214.802 37.797 213.667 38.325 212.531 38.853 211.515 39.675 210.619 40.791V40.791C209.706 41.928 209.108 43.115 208.826 44.353 208.548 45.585 208.591 46.757 208.956 47.869 209.324 48.976 209.994 49.919 210.965 50.699ZM230.042 74.953C229.009 73.51 228.431 71.972 228.309 70.339 228.177 68.704 228.499 67.12 229.274 65.589 230.05 64.057 231.214 62.736 232.766 61.624V61.624C234.313 60.516 235.922 59.844 237.593 59.607 239.264 59.37 240.85 59.567 242.35 60.199 243.848 60.84 245.113 61.881 246.146 63.323V63.323C247.179 64.765 247.761 66.304 247.893 67.939 248.016 69.573 247.695 71.152 246.93 72.676 246.168 74.205 245.014 75.524 243.467 76.632V76.632C241.915 77.743 240.296 78.419 238.611 78.658 236.929 78.902 235.341 78.707 233.847 78.071 232.343 77.434 231.075 76.395 230.042 74.953ZM232.003 73.453C232.743 74.486 233.659 75.222 234.751 75.662 235.849 76.098 237.021 76.211 238.267 76 239.518 75.787 240.725 75.263 241.89 74.429V74.429C243.049 73.599 243.931 72.626 244.536 71.51 245.136 70.398 245.406 69.253 245.347 68.073 245.288 66.894 244.888 65.787 244.148 64.754V64.754C243.423 63.742 242.516 63.024 241.426 62.598 240.336 62.173 239.173 62.062 237.937 62.264 236.702 62.467 235.502 62.985 234.338 63.819V63.819C233.153 64.668 232.258 65.65 231.652 66.766 231.052 67.878 230.778 69.018 230.83 70.187 230.887 71.352 231.278 72.441 232.003 73.453ZM257.314 97.292L247.342 109.761 246.19 106.628 254.423 96.324 241.627 94.214 240.475 91.081 255.745 93.807 265.837 81.552 266.945 84.567 258.423 94.895 271.659 97.39 272.73 100.305Z" fill="#ffffff" data-fill-palette-color="accent"></path><path d="M6.409 139.581c0-6.085 4.933-11.018 11.018-11.018 6.085 0 11.018 4.933 11.018 11.018 0 6.085-4.933 11.018-11.018 11.018-6.085 0-11.018-4.933-11.018-11.018zM250.238 139.581c0-6.085 4.933-11.018 11.018-11.018 6.085 0 11.018 4.933 11.018 11.018 0 6.085-4.933 11.018-11.018 11.018-6.085 0-11.018-4.933-11.018-11.018z" fill="#ffffff" data-fill-palette-color="accent"></path></svg></g><defs></defs></svg><rect width="280" height="280" fill="none" stroke="none" visibility="hidden"></rect></g></svg></g></svg>